<svg width="249" height="50" viewBox="0 0 249 50" version="1.1" xmlns="http://www.w3.org/2000/svg" xmlns:xlink="http://www.w3.org/1999/xlink">
<title>Component 2</title>
<desc>Created using Figma</desc>
<g id="Canvas" transform="translate(2420 -1983)">
<g id="Component 2">
<g id="Rectangle 2.4">
<use xlink:href="#path0_fill" transform="translate(-2340 1983)" fill="#32CFA9"/>
</g>
<g id="Cancel">
<use xlink:href="#path1_fill" transform="translate(-2420 1999)"/>
</g>
<g id="Confirm">
<use xlink:href="#path2_fill" transform="translate(-2281 1999)"/>
</g>
<g id="Line">
<use xlink:href="#path3_stroke" transform="translate(-2420 2020)"/>
</g>
</g>
</g>
<defs>
<path id="path0_fill" d="M 0 25C 0 11.1929 11.1929 0 25 0L 144 0C 157.807 0 169 11.1929 169 25C 169 38.8071 157.807 50 144 50L 25 50C 11.1929 50 0 38.8071 0 25Z"/>
<path id="path1_fill" d="M 8.47656 9.8418C 8.35352 10.8945 7.96387 11.708 7.30762 12.2822C 6.65592 12.8519 5.78776 13.1367 4.70312 13.1367C 3.52734 13.1367 2.58398 12.7152 1.87305 11.8721C 1.16667 11.029 0.813477 9.90104 0.813477 8.48828L 0.813477 7.53125C 0.813477 6.60612 0.977539 5.79264 1.30566 5.09082C 1.63835 4.389 2.10775 3.85124 2.71387 3.47754C 3.31999 3.09928 4.02181 2.91016 4.81934 2.91016C 5.87663 2.91016 6.72428 3.20638 7.3623 3.79883C 8.00033 4.38672 8.37174 5.20247 8.47656 6.24609L 7.15723 6.24609C 7.04329 5.45312 6.79492 4.87891 6.41211 4.52344C 6.03385 4.16797 5.50293 3.99023 4.81934 3.99023C 3.98079 3.99023 3.32227 4.30013 2.84375 4.91992C 2.36979 5.53971 2.13281 6.42155 2.13281 7.56543L 2.13281 8.5293C 2.13281 9.60938 2.3584 10.4684 2.80957 11.1064C 3.26074 11.7445 3.89193 12.0635 4.70312 12.0635C 5.43229 12.0635 5.99056 11.8994 6.37793 11.5713C 6.76986 11.2386 7.02962 10.6621 7.15723 9.8418L 8.47656 9.8418ZM 14.6426 13C 14.5697 12.8542 14.5104 12.5944 14.4648 12.2207C 13.877 12.8314 13.1751 13.1367 12.3594 13.1367C 11.6302 13.1367 11.0309 12.9316 10.5615 12.5215C 10.0967 12.1068 9.86426 11.5827 9.86426 10.9492C 9.86426 10.179 10.1559 9.58203 10.7393 9.1582C 11.3271 8.72982 12.152 8.51562 13.2139 8.51562L 14.4443 8.51562L 14.4443 7.93457C 14.4443 7.49251 14.3122 7.1416 14.0479 6.88184C 13.7835 6.61751 13.3939 6.48535 12.8789 6.48535C 12.4277 6.48535 12.0495 6.59928 11.7441 6.82715C 11.4388 7.05501 11.2861 7.33073 11.2861 7.6543L 10.0146 7.6543C 10.0146 7.28516 10.1445 6.92969 10.4043 6.58789C 10.6686 6.24154 11.0241 5.9681 11.4707 5.76758C 11.9219 5.56706 12.4163 5.4668 12.9541 5.4668C 13.8063 5.4668 14.474 5.68099 14.957 6.10938C 15.4401 6.5332 15.6908 7.11882 15.709 7.86621L 15.709 11.2705C 15.709 11.9495 15.7956 12.4896 15.9688 12.8906L 15.9688 13L 14.6426 13ZM 12.5439 12.0361C 12.9404 12.0361 13.3164 11.9336 13.6719 11.7285C 14.0273 11.5234 14.2848 11.2568 14.4443 10.9287L 14.4443 9.41113L 13.4531 9.41113C 11.9036 9.41113 11.1289 9.86458 11.1289 10.7715C 11.1289 11.168 11.2611 11.4779 11.5254 11.7012C 11.7897 11.9245 12.1292 12.0361 12.5439 12.0361ZM 18.8877 5.60352L 18.9287 6.5332C 19.4938 5.82227 20.2321 5.4668 21.1436 5.4668C 22.7067 5.4668 23.4951 6.34863 23.5088 8.1123L 23.5088 13L 22.2441 13L 22.2441 8.10547C 22.2396 7.57227 22.1165 7.17806 21.875 6.92285C 21.638 6.66764 21.2666 6.54004 20.7607 6.54004C 20.3506 6.54004 19.9906 6.64941 19.6807 6.86816C 19.3708 7.08691 19.1292 7.37402 18.9561 7.72949L 18.9561 13L 17.6914 13L 17.6914 5.60352L 18.8877 5.60352ZM 28.3828 12.1045C 28.834 12.1045 29.2282 11.9678 29.5654 11.6943C 29.9027 11.4209 30.0895 11.0791 30.126 10.6689L 31.3223 10.6689C 31.2995 11.0928 31.1536 11.4961 30.8848 11.8789C 30.6159 12.2617 30.2559 12.5671 29.8047 12.7949C 29.3581 13.0228 28.8841 13.1367 28.3828 13.1367C 27.3757 13.1367 26.5736 12.8018 25.9766 12.1318C 25.3841 11.4574 25.0879 10.5368 25.0879 9.37012L 25.0879 9.1582C 25.0879 8.43815 25.2201 7.79785 25.4844 7.2373C 25.7487 6.67676 26.127 6.24154 26.6191 5.93164C 27.1159 5.62174 27.7015 5.4668 28.376 5.4668C 29.2054 5.4668 29.8936 5.71517 30.4404 6.21191C 30.9919 6.70866 31.2858 7.35352 31.3223 8.14648L 30.126 8.14648C 30.0895 7.66797 29.9072 7.27604 29.5791 6.9707C 29.2555 6.66081 28.8545 6.50586 28.376 6.50586C 27.7334 6.50586 27.2344 6.73828 26.8789 7.20312C 26.528 7.66341 26.3525 8.33105 26.3525 9.20605L 26.3525 9.44531C 26.3525 10.2975 26.528 10.9538 26.8789 11.4141C 27.2298 11.8743 27.7311 12.1045 28.3828 12.1045ZM 35.8135 13.1367C 34.8109 13.1367 33.9951 12.8086 33.3662 12.1523C 32.7373 11.4915 32.4229 10.6097 32.4229 9.50684L 32.4229 9.27441C 32.4229 8.54069 32.5618 7.88672 32.8398 7.3125C 33.1224 6.73372 33.5143 6.28255 34.0156 5.95898C 34.5215 5.63086 35.0684 5.4668 35.6562 5.4668C 36.6178 5.4668 37.3652 5.78353 37.8984 6.41699C 38.4316 7.05046 38.6982 7.95736 38.6982 9.1377L 38.6982 9.66406L 33.6875 9.66406C 33.7057 10.3932 33.9176 10.9834 34.3232 11.4346C 34.7334 11.8812 35.2529 12.1045 35.8818 12.1045C 36.3285 12.1045 36.7067 12.0133 37.0166 11.8311C 37.3265 11.6488 37.5977 11.4072 37.8301 11.1064L 38.6025 11.708C 37.9827 12.6605 37.0531 13.1367 35.8135 13.1367ZM 35.6562 6.50586C 35.1458 6.50586 34.7174 6.69271 34.3711 7.06641C 34.0247 7.43555 33.8105 7.95508 33.7285 8.625L 37.4336 8.625L 37.4336 8.5293C 37.3971 7.88672 37.224 7.38997 36.9141 7.03906C 36.6042 6.68359 36.1849 6.50586 35.6562 6.50586ZM 41.542 13L 40.2773 13L 40.2773 2.5L 41.542 2.5L 41.542 13Z"/>
<path id="path2_fill" d="M 8.47656 9.8418C 8.35352 10.8945 7.96387 11.708 7.30762 12.2822C 6.65592 12.8519 5.78776 13.1367 4.70312 13.1367C 3.52734 13.1367 2.58398 12.7152 1.87305 11.8721C 1.16667 11.029 0.813477 9.90104 0.813477 8.48828L 0.813477 7.53125C 0.813477 6.60612 0.977539 5.79264 1.30566 5.09082C 1.63835 4.389 2.10775 3.85124 2.71387 3.47754C 3.31999 3.09928 4.02181 2.91016 4.81934 2.91016C 5.87663 2.91016 6.72428 3.20638 7.3623 3.79883C 8.00033 4.38672 8.37174 5.20247 8.47656 6.24609L 7.15723 6.24609C 7.04329 5.45312 6.79492 4.87891 6.41211 4.52344C 6.03385 4.16797 5.50293 3.99023 4.81934 3.99023C 3.98079 3.99023 3.32227 4.30013 2.84375 4.91992C 2.36979 5.53971 2.13281 6.42155 2.13281 7.56543L 2.13281 8.5293C 2.13281 9.60938 2.3584 10.4684 2.80957 11.1064C 3.26074 11.7445 3.89193 12.0635 4.70312 12.0635C 5.43229 12.0635 5.99056 11.8994 6.37793 11.5713C 6.76986 11.2386 7.02962 10.6621 7.15723 9.8418L 8.47656 9.8418ZM 9.74121 9.2334C 9.74121 8.50879 9.88249 7.8571 10.165 7.27832C 10.4521 6.69954 10.8486 6.25293 11.3545 5.93848C 11.8649 5.62402 12.446 5.4668 13.0977 5.4668C 14.1048 5.4668 14.9183 5.81543 15.5381 6.5127C 16.1624 7.20996 16.4746 8.13737 16.4746 9.29492L 16.4746 9.38379C 16.4746 10.1038 16.3356 10.751 16.0576 11.3252C 15.7842 11.8949 15.39 12.3392 14.875 12.6582C 14.3646 12.9772 13.7767 13.1367 13.1113 13.1367C 12.1087 13.1367 11.2952 12.7881 10.6709 12.0908C 10.0511 11.3936 9.74121 10.4707 9.74121 9.32227L 9.74121 9.2334ZM 11.0127 9.38379C 11.0127 10.2041 11.2018 10.8626 11.5801 11.3594C 11.9629 11.8561 12.4733 12.1045 13.1113 12.1045C 13.7539 12.1045 14.2643 11.8538 14.6426 11.3525C 15.0208 10.8467 15.21 10.1403 15.21 9.2334C 15.21 8.4222 15.0163 7.76595 14.6289 7.26465C 14.2461 6.75879 13.7357 6.50586 13.0977 6.50586C 12.4733 6.50586 11.9697 6.75423 11.5869 7.25098C 11.2041 7.74772 11.0127 8.45866 11.0127 9.38379ZM 19.2568 5.60352L 19.2979 6.5332C 19.863 5.82227 20.6012 5.4668 21.5127 5.4668C 23.0758 5.4668 23.8643 6.34863 23.8779 8.1123L 23.8779 13L 22.6133 13L 22.6133 8.10547C 22.6087 7.57227 22.4857 7.17806 22.2441 6.92285C 22.0072 6.66764 21.6357 6.54004 21.1299 6.54004C 20.7197 6.54004 20.3597 6.64941 20.0498 6.86816C 19.7399 7.08691 19.4984 7.37402 19.3252 7.72949L 19.3252 13L 18.0605 13L 18.0605 5.60352L 19.2568 5.60352ZM 26.209 13L 26.209 6.58105L 25.04 6.58105L 25.04 5.60352L 26.209 5.60352L 26.209 4.97461C 26.209 4.14974 26.4437 3.50716 26.9131 3.04688C 27.387 2.58659 28.0547 2.35645 28.916 2.35645C 29.4264 2.35645 30.0713 2.49544 30.8506 2.77344L 30.6387 3.83984C 30.069 3.61198 29.5267 3.49805 29.0117 3.49805C 28.4694 3.49805 28.0775 3.62109 27.8359 3.86719C 27.599 4.10872 27.4805 4.47331 27.4805 4.96094L 27.4805 5.60352L 28.9912 5.60352L 28.9912 6.58105L 27.4805 6.58105L 27.4805 13L 26.209 13ZM 31.4795 13L 30.208 13L 30.208 5.60352L 31.4795 5.60352L 31.4795 13ZM 37.1123 6.73828C 36.9209 6.70638 36.7135 6.69043 36.4902 6.69043C 35.6608 6.69043 35.098 7.04362 34.8018 7.75L 34.8018 13L 33.5371 13L 33.5371 5.60352L 34.7676 5.60352L 34.7881 6.45801C 35.2028 5.7972 35.7907 5.4668 36.5518 5.4668C 36.7979 5.4668 36.9847 5.4987 37.1123 5.5625L 37.1123 6.73828ZM 39.4707 5.60352L 39.5049 6.42383C 40.0472 5.78581 40.7786 5.4668 41.6992 5.4668C 42.7337 5.4668 43.4378 5.86328 43.8115 6.65625C 44.0576 6.30078 44.3766 6.01367 44.7686 5.79492C 45.165 5.57617 45.6322 5.4668 46.1699 5.4668C 47.7923 5.4668 48.6172 6.32585 48.6445 8.04395L 48.6445 13L 47.3799 13L 47.3799 8.11914C 47.3799 7.59049 47.2591 7.19629 47.0176 6.93652C 46.776 6.6722 46.3704 6.54004 45.8008 6.54004C 45.3314 6.54004 44.9417 6.68132 44.6318 6.96387C 44.3219 7.24186 44.1419 7.61784 44.0918 8.0918L 44.0918 13L 42.8203 13L 42.8203 8.15332C 42.8203 7.0778 42.2939 6.54004 41.2412 6.54004C 40.4118 6.54004 39.8444 6.89323 39.5391 7.59961L 39.5391 13L 38.2744 13L 38.2744 5.60352L 39.4707 5.60352Z"/>
<path id="path3_stroke" d="M 0 0L 43 0L 43 -1L 0 -1L 0 0Z"/>
</defs>
</svg>
